<svg width="40" height="40" viewBox="0 0 40 40" fill="none" xmlns="http://www.w3.org/2000/svg">
<rect width="40" height="40" rx="20" fill="#1B1B1B"/>
<path d="M14.9003 6.62194C13.4903 7.40194 13.0103 9.14194 13.8203 10.6719C14.3903 11.7819 15.6203 12.2619 17.6003 12.1419L19.2203 12.0519L19.3103 10.4319C19.4303 8.45194 18.9503 7.22194 17.8403 6.65194C16.8203 6.11194 15.8603 6.11194 14.9003 6.62194Z" fill="#FF2121"/>
<path d="M22.1004 6.62196C20.7804 7.34196 20.6004 8.15196 20.5704 12.712C20.5704 17.392 20.7804 18.292 22.1004 18.982C23.1504 19.522 23.9904 19.522 25.0404 18.982C26.3304 18.292 26.5704 17.362 26.5704 12.802C26.5704 10.192 26.4204 8.33196 26.2104 7.85196C25.5504 6.41196 23.5704 5.81196 22.1004 6.62196Z" fill="#FF2121"/>
<path d="M7.70036 13.822C5.69036 14.932 5.75036 18.112 7.82036 19.042C8.87036 19.522 16.6704 19.522 17.7204 19.042C18.5904 18.652 19.3704 17.392 19.3704 16.402C19.3704 15.412 18.5904 14.152 17.7204 13.762C16.6104 13.252 8.66036 13.282 7.70036 13.822Z" fill="#FF2121"/>
<path d="M29.2403 13.852C28.1903 14.422 27.7103 15.682 27.8303 17.632L27.9203 19.252L29.5403 19.342C31.5203 19.462 32.7503 18.982 33.3203 17.872C34.7603 15.112 31.9703 12.382 29.2403 13.852Z" fill="#FF2121"/>
<path d="M7.70034 21.0219C5.09034 22.4919 6.20034 26.6019 9.20034 26.6019C10.2203 26.6019 11.4803 25.7619 11.8403 24.8619C12.0503 24.3819 12.1703 23.2719 12.1103 22.3719L12.0203 20.7519L10.2203 20.6919C9.14034 20.6319 8.12034 20.7819 7.70034 21.0219Z" fill="#FF2121"/>
<path d="M14.9004 21.022C13.5804 21.742 13.4004 22.552 13.3704 27.112C13.3704 31.792 13.5804 32.692 14.9004 33.382C16.4604 34.192 18.3504 33.622 19.0104 32.152C19.4904 31.102 19.4904 23.302 19.0104 22.252C18.3504 20.812 16.3704 20.212 14.9004 21.022Z" fill="#FF2121"/>
<path d="M22.1004 21.0219C20.0904 22.1319 20.1504 25.3119 22.2204 26.2419C23.2704 26.7219 31.0704 26.7219 32.1204 26.2419C32.9904 25.8519 33.7704 24.5919 33.7704 23.6019C33.7704 22.6119 32.9904 21.3519 32.1204 20.9619C31.0104 20.4519 23.0604 20.4819 22.1004 21.0219Z" fill="#FF2121"/>
<path d="M20.7803 28.012C20.3903 28.372 20.5703 31.432 20.9903 32.272C22.0403 34.252 25.1003 34.252 26.1503 32.272C26.9303 30.712 26.4503 28.972 25.0403 28.222C24.2003 27.802 21.1403 27.622 20.7803 28.012Z" fill="#FF2121"/>
</svg>
