<svg width="14" height="17" viewBox="0 0 14 17" fill="none" xmlns="http://www.w3.org/2000/svg">
<path d="M4.21315 0.634299C3.54746 0.791964 3.74016 1.28247 4.65111 1.75547C7.24381 3.12189 8.43505 6.22262 7.5241 9.23576C7.10366 10.5671 6.03505 11.9686 4.84381 12.7219C3.98541 13.265 2.42629 13.6679 1.23505 13.6679C0.534317 13.6679 0.30658 13.7379 0.30658 13.9131C0.30658 14.2635 1.23505 14.9642 2.46132 15.5073C7.82191 17.9598 13.7956 13.8956 13.5504 7.99196C13.4102 5.01386 11.781 2.61386 8.97811 1.28247C7.89198 0.774445 7.48906 0.669335 6.15767 0.61678C5.29928 0.581744 4.42337 0.599262 4.21315 0.634299Z" fill="white"/>
</svg>
